<svg xmlns="http://www.w3.org/2000/svg" viewBox="0 0 96 96" id="brief"><rect width="67.71" height="86.56" x=".98" y="1.97" fill="#a0a9e1"></rect><polygon fill="#7d86c8" points="68.69 7.16 68.69 88.53 4.01 88.53 4.01 21.04 17.9 7.16 68.69 7.16"></polygon><polygon fill="#bed6ff" points="74.8 10.15 74.8 94.03 9.19 94.03 9.19 24.04 23.08 10.15 74.8 10.15"></polygon><path fill="#dceaff" d="M16.46 71.87a2.27 2.27 0 00-2.27 2.27V86.79A2.23 2.23 0 0016.42 89H67.56a2.23 2.23 0 002.23-2.24V74.14a2.27 2.27 0 00-2.26-2.27zM69.79 19.76V17.39a2.23 2.23 0 00-2.23-2.23H30.35A1.8 1.8 0 0028.55 17v2.81a1.74 1.74 0 001.74 1.74H68.06A1.73 1.73 0 0069.79 19.76z"></path><path fill="#fff" d="M67.56,15.16H56.64a3.17,3.17,0,0,0,0,6.34H68.06a1.73,1.73,0,0,0,1.73-1.74V17.39A2.23,2.23,0,0,0,67.56,15.16Z"></path><path fill="#dceaff" d="M69.79,37.42V26.85a1.6,1.6,0,0,0-1.6-1.6h-38a1.61,1.61,0,0,0-1.61,1.6v1.32a1.34,1.34,0,0,1-1.34,1.34H16a1.8,1.8,0,0,0-1.8,1.79V65.12a2.63,2.63,0,0,0,2.63,2.63H67.17a2.62,2.62,0,0,0,2.62-2.63V44.83A1.83,1.83,0,0,0,68,43H41.26a1.88,1.88,0,0,1-1.88-1.88h0a1.88,1.88,0,0,1,1.88-1.87H68A1.83,1.83,0,0,0,69.79,37.42Z"></path><path fill="#fff" d="M68,43H55.68a2,2,0,0,0-2,2V65.71a2.05,2.05,0,0,0,2,2H67.17a2.62,2.62,0,0,0,2.62-2.63V44.83A1.83,1.83,0,0,0,68,43Z"></path><path fill="#bed6ff" d="M49.26,41A16.76,16.76,0,1,0,66,57.72,16.78,16.78,0,0,0,49.26,41Zm0,31.52A14.76,14.76,0,1,1,64,57.72,14.78,14.78,0,0,1,49.26,72.48Z"></path><path fill="#bed6ff" d="M49.26,47.29A10.43,10.43,0,1,0,59.69,57.72,10.44,10.44,0,0,0,49.26,47.29Zm0,18.85a8.43,8.43,0,1,1,8.43-8.42A8.44,8.44,0,0,1,49.26,66.14Z"></path><path fill="#fff" d="M68.19,25.25H55.72a2.09,2.09,0,0,0-2.09,2.08v9.84a2.09,2.09,0,0,0,2.09,2.08H68a1.83,1.83,0,0,0,1.83-1.83V26.85A1.6,1.6,0,0,0,68.19,25.25Z"></path><path fill="#ffb942" d="M49.26,55.5H24.38a1,1,0,0,1-1-1V29.61a1,1,0,0,1,1-1H49.26a1,1,0,0,1,1,1V54.5A1,1,0,0,1,49.26,55.5Zm-23.88-2H48.26V30.61H25.38Z"></path><path fill="#ff2c63" d="M49.26,37.74A16.76,16.76,0,1,0,66,54.5,16.78,16.78,0,0,0,49.26,37.74Zm0,31.52A14.76,14.76,0,1,1,64,54.5,14.78,14.78,0,0,1,49.26,69.26Z"></path><path fill="#ff2c63" d="M49.26,44.07A10.43,10.43,0,1,0,59.69,54.5,10.44,10.44,0,0,0,49.26,44.07Zm0,18.85a8.43,8.43,0,1,1,8.43-8.42A8.44,8.44,0,0,1,49.26,62.92Z"></path><polygon fill="#a0a9e1" points="23.08 10.15 23.08 24.04 9.19 24.04 23.08 10.15"></polygon><path fill="#484f79" d="M30.94 72.64H19a1 1 0 010-2h12a1 1 0 010 2zM30.94 78.08H19a1 1 0 010-2h12a1 1 0 010 2zM23.61 83.52H19a1 1 0 010-2h4.63a1 1 0 010 2zM66.54 78.14H61.2a1 1 0 010-2h5.34a1 1 0 010 2zM66.54 73.55H61.2a1 1 0 010-2h5.34a1 1 0 010 2z"></path><polygon fill="#ffdc93" points="95.01 34.9 95.01 75.7 88.35 85.5 81.69 75.7 81.69 34.9 95.01 34.9"></polygon><rect width="8.97" height="1.61" x="83.87" y="34.9" fill="#fffaac"></rect><path fill="#fffaac" d="M92.44,76.21l-4.09,5.26L84,75.86l1.38-1.11a1.22,1.22,0,0,1,1.52,0L89.64,77a1.49,1.49,0,0,0,1.87,0Z"></path><path fill="#ffa042" d="M95,34.9V71.64c-3,2.42-2.91,2.34-4.45,3.56l-4.44-3.56L81.69,75.2V34.9Z"></path><path fill="#ffb942" d="M92.84,38V69.8l-2.27,1.82c-1.89-1.52-2.52-2-4.44-3.57l-2.26,1.82V38Z"></path><polygon fill="#2f3142" points="83.87 78.91 88.35 85.5 92.84 78.91 83.87 78.91"></polygon><rect width="13.32" height="4.85" x="81.7" y="30.05" fill="#b9c7eb"></rect><path fill="#d21863" d="M95,24.85v5.2H81.7v-5.2a2.21,2.21,0,0,1,2.21-2.22H92.8A2.21,2.21,0,0,1,95,24.85Z"></path><path fill="#ff2c63" d="M92.84,25v5h-9V25a2.38,2.38,0,0,1,2.37-2.38h4.22A2.39,2.39,0,0,1,92.84,25Z"></path><rect width="4.43" height="2.41" x="86.14" y="25.99" fill="#fff" rx=".84"></rect><path fill="#cdeaeb" d="M92.84,30.05v2.59a.57.57,0,0,1-.57.57H84.44a.56.56,0,0,1-.57-.57V30.05Z"></path><polygon fill="#ff6e42" points="86.89 34.9 86.89 72.24 86.13 71.64 85.37 72.24 85.37 34.9 86.89 34.9"></polygon><polygon fill="#ff6e42" points="91.33 34.9 91.33 74.6 90.57 75.2 89.82 74.6 89.82 34.9 91.33 34.9"></polygon><polygon fill="#ff9642" points="86.89 38 86.89 68.66 86.13 68.05 85.37 68.66 85.37 38 86.89 38"></polygon><polygon fill="#ff9642" points="91.33 38 91.33 71.01 90.57 71.61 89.82 71.01 89.82 38 91.33 38"></polygon><rect width="3.36" height="1.09" x="86.67" y="30.94" fill="#b9c7eb" rx=".4"></rect></svg>